<?xml version="1.0" encoding="utf-8"?>
<!-- Generator: Adobe Illustrator 27.5.0, SVG Export Plug-In . SVG Version: 6.00 Build 0)  -->
<svg version="1.1" xmlns="http://www.w3.org/2000/svg" xmlns:xlink="http://www.w3.org/1999/xlink" x="0px" y="0px"
	 viewBox="0 0 750 500" style="enable-background:new 0 0 750 500;" xml:space="preserve">
<g id="BACKGROUND">
	<linearGradient id="SVGID_1_" gradientUnits="userSpaceOnUse" x1="762.7156" y1="-137.7156" x2="104.2031" y2="520.7969">
		<stop  offset="0" style="stop-color:#4C7F98"/>
		<stop  offset="1" style="stop-color:#29486E"/>
	</linearGradient>
	<polygon style="fill:url(#SVGID_1_);" points="0,0 750,0 750,500 0,500 	"/>
</g>
<g id="OBJECTS">
	<g>
		<defs>
			
				<rect id="SVGID_00000067936329270291631480000004668047244722037389_" transform="matrix(-1 -1.224647e-16 1.224647e-16 -1 750 500)" width="750" height="500"/>
		</defs>
		<clipPath id="SVGID_00000160173830130741568770000000433445870088045234_">
			<use xlink:href="#SVGID_00000067936329270291631480000004668047244722037389_"  style="overflow:visible;"/>
		</clipPath>
		<g style="clip-path:url(#SVGID_00000160173830130741568770000000433445870088045234_);">
			<path style="fill:#1C324A;" d="M318.745,360.172l1.626-1.293c1.194-0.949,1.628-2.511,1.037-3.73l-4.208-8.679
				c-0.782-1.612-2.984-1.945-4.563-0.689l-10.411,8.279c-1.579,1.256-1.747,3.473-0.347,4.594l7.533,6.035
				c1.058,0.848,2.679,0.774,3.874-0.175l1.387-1.103c6.137,10.438,8.553,22.526,6.831,34.759
				c-2.091,14.85-9.981,27.819-22.217,36.518l-50.957,36.228c-1.562-0.68-3.43-0.552-4.919,0.507
				c-31.289,22.245-74.547,16.175-98.482-13.819c-23.934-29.994-20.188-73.441,8.527-98.912c1.365-1.21,1.903-3,1.592-4.669
				l46.769-41.484c11.229-9.961,25.655-14.738,40.622-13.452c12.329,1.059,23.591,6.113,32.41,14.418l-1.387,1.103
				c-1.194,0.949-1.628,2.511-1.037,3.73l4.208,8.679c0.782,1.612,2.984,1.945,4.563,0.689l10.411-8.279
				c1.579-1.256,1.747-3.473,0.347-4.594l-7.533-6.035c-1.058-0.848-2.679-0.775-3.873,0.175l-1.626,1.293
				c-9.738-9.404-22.284-15.126-36.042-16.309c-1.806-0.155-3.604-0.23-5.393-0.225c-14.437,0.039-28.154,5.251-39.097,14.958
				l-46.767,41.482c-1.626-0.508-3.469-0.182-4.834,1.03c-31.117,27.601-36.486,73.737-13.451,107.572
				c-14.514,6.87-55.329,26.762-98.781,53.096c1.315-6.807,2.614-13.771,3.898-20.898c9.975-55.377,17.109-110.127,21.493-148.012
				c11.191,0.071,22.479-3.531,31.914-11.033c21.924-17.434,25.539-49.309,8.075-71.195c-17.464-21.886-49.394-25.495-71.318-8.061
				c-21.924,17.434-25.539,49.309-8.075,71.195c7.697,9.645,18.202,15.738,29.423,18.047
				c-4.367,37.727-11.471,92.231-21.401,147.346c-1.849,10.263-3.731,20.195-5.644,29.783
				c-33.527,21.026-61.002,41.453-81.674,60.724c-26.636,24.831-42.158,48.014-46.135,68.906
				c-3.128,16.432,0.713,31.518,11.426,44.942c1.435,1.799,2.996,3.57,4.678,5.308c13.403,13.852,26.927,18.5,40.195,13.815
				c19.13-6.754,36.279-32.717,52.427-79.373c9.894-28.585,19.305-64.848,28.07-108.115c48.172-29.876,94.877-52.336,107.718-58.362
				c27.694,31.506,75.056,37.258,109.604,12.695c1.488-1.058,2.219-2.778,2.087-4.474l50.959-36.229
				c13.401-9.527,22.042-23.731,24.332-39.995C328.532,385.236,325.749,371.75,318.745,360.172z M-5.654,630.119
				c-7.192,20.775-14.69,37.492-22.285,49.687c-7.955,12.773-16.028,20.675-23.995,23.488c-9.362,3.306-19.054-0.401-29.629-11.331
				c-1.48-1.53-2.844-3.076-4.094-4.642c-8.882-11.132-11.95-23.218-9.369-36.774c6.223-32.7,45.97-73.339,115.158-117.855
				C12.014,571.381,3.377,604.031-5.654,630.119z"/>
			<g>
				<ellipse style="fill:#3A6383;" cx="61.129" cy="274.392" rx="50.752" ry="50.664"/>
			</g>
			<g>
				<ellipse style="fill:#4C7F98;" cx="61.129" cy="274.392" rx="47.774" ry="47.691"/>
			</g>
			<g>
				<ellipse style="fill:#71B7C3;" cx="61.129" cy="274.392" rx="42.683" ry="42.609"/>
			</g>
			<g>
				<path style="fill:#8CC9D1;" d="M61.129,274.393l-42.464-4.3c1.218-11.93,7.445-23.278,18.074-30.667L61.129,274.393z"/>
			</g>
			<g>
				<path style="fill:#8CC9D1;" d="M85.519,309.36l-24.39-34.966l42.465,4.3C102.377,290.622,96.151,301.97,85.519,309.36z"/>
			</g>
			<g>
				<path style="fill:#8CC9D1;" d="M237.916,287.208c1.785,0.11,3.574,0.3,5.367,0.571c16.267,2.458,30.403,11.235,39.804,24.713
					c0.814,1.167,0.526,2.771-0.643,3.584c-1.168,0.812-2.775,0.525-3.59-0.642c-8.584-12.306-21.491-20.32-36.343-22.564
					c-14.853-2.245-29.557,1.596-41.405,10.814l-52.735,41.03c-31.321,24.369-38.08,68.94-15.389,101.472
					c22.691,32.531,66.912,41.666,100.673,20.795l56.844-35.14c12.771-7.895,21.481-20.33,24.525-35.015
					c3.044-14.685-0.007-29.549-8.591-41.855c-0.814-1.167-0.526-2.771,0.643-3.583c1.169-0.812,2.776-0.526,3.59,0.641
					c9.401,13.478,12.743,29.758,9.409,45.84c-3.334,16.083-12.873,29.702-26.86,38.349l-56.844,35.14
					c-36.09,22.311-83.363,12.546-107.62-22.23c-24.258-34.776-17.032-82.424,16.45-108.475l52.735-41.03
					C209.482,290.64,223.506,286.319,237.916,287.208z"/>
			</g>
			<g>
				<path style="fill:#FFFFFF;" d="M237.83,288.654c1.742,0.107,3.487,0.293,5.236,0.557c15.869,2.398,29.659,10.96,38.83,24.109
					c0.356,0.51,0.23,1.212-0.281,1.568c-0.511,0.355-1.215,0.23-1.57-0.281c-8.814-12.636-22.066-20.864-37.317-23.168
					c-15.249-2.305-30.348,1.639-42.514,11.104l-52.735,41.03c-31.928,24.842-38.819,70.279-15.687,103.441
					c23.133,33.163,68.212,42.475,102.627,21.199l56.843-35.14c13.113-8.107,22.056-20.875,25.182-35.953
					c3.125-15.078-0.008-30.34-8.821-42.976c-0.356-0.51-0.23-1.212,0.281-1.568c0.512-0.355,1.215-0.23,1.571,0.281
					c9.172,13.148,12.431,29.03,9.179,44.72c-3.252,15.69-12.558,28.976-26.203,37.411l-56.844,35.14
					c-35.436,21.906-81.849,12.318-105.666-21.827c-23.817-34.145-16.723-80.928,16.152-106.505l52.735-41.03
					C210.091,292.001,223.773,287.787,237.83,288.654z"/>
			</g>
			<g>
				<g>
					<ellipse style="fill:#1C324A;" cx="62.668" cy="281.176" rx="21.544" ry="21.507"/>
					<path style="fill:#1C324A;" d="M71.107,324.077c-1.475,0.296-2.957,0.524-4.443,0.685c-0.741,0.08-9.043-33.495-9.043-33.495
						l6.919-0.398L71.107,324.077z"/>
				</g>
			</g>
			<g>
				<g>
					<g>
						<g>
							<path style="fill:#4C7F98;" d="M237.655,473.428c2.356-1.457,3.084-4.544,1.625-6.896c-1.461-2.357-4.552-3.078-6.908-1.622
								c-32.658,20.189-75.436,11.353-97.387-20.117c-21.951-31.469-15.412-74.586,14.886-98.159
								c2.186-1.701,2.571-4.86,0.873-7.031c-1.704-2.182-4.857-2.572-7.043-0.872c-32.832,25.545-41.163,71.24-20.358,106.485
								c-14.926,5.923-56.939,23.152-101.999,46.641c1.751-6.709,3.496-13.575,5.237-20.604
								c24.335-98.281,39.359-195.133,39.508-196.1c0.421-2.734-1.458-5.292-4.197-5.713c-2.74-0.42-5.302,1.456-5.723,4.19
								c-0.149,0.963-15.114,97.428-39.346,195.278c-2.507,10.124-5.026,19.914-7.552,29.358
								c-34.813,18.829-63.548,37.448-85.419,55.351c-28.181,23.068-45.166,45.206-50.481,65.8
								c-4.181,16.197-1.32,31.499,8.506,45.583c1.316,1.887,2.76,3.755,4.326,5.598c12.482,14.684,25.679,20.192,39.221,16.369
								c19.526-5.511,38.313-30.319,57.436-75.841c11.716-27.89,23.446-63.474,34.982-106.087
								c49.998-26.719,98.054-46.133,111.257-51.321C154.703,486.939,201.595,495.721,237.655,473.428z M-26.407,607.276
								c-8.516,20.27-17.076,36.471-25.441,48.152c-8.762,12.235-17.327,19.603-25.459,21.898
								c-9.556,2.697-18.989-1.624-28.838-13.211c-1.379-1.622-2.64-3.252-3.786-4.896c-8.146-11.68-10.428-23.937-6.979-37.3
								c8.318-32.232,50.603-70.234,122.516-110.212C-4.988,549.795-15.713,581.823-26.407,607.276z"/>
						</g>
					</g>
				</g>
				<g>
					<path style="fill:#5E9AAE;" d="M-82.867,686.147c-10.014,0-19.907-5.666-29.406-16.84c-1.518-1.785-2.934-3.618-4.21-5.447
						c-9.47-13.575-12.233-28.36-8.21-43.944c5.207-20.174,21.967-41.96,49.813-64.754c21.769-17.819,50.402-36.371,85.104-55.14
						l0.757-0.409l0.222-0.831c2.519-9.417,5.063-19.307,7.561-29.394c24.163-97.574,39.232-194.486,39.381-195.454
						c0.224-1.458,1.504-2.556,2.977-2.556c0.154,0,0.311,0.012,0.465,0.036c0.796,0.122,1.498,0.547,1.975,1.196
						c0.477,0.649,0.672,1.444,0.549,2.239c-0.149,0.966-15.164,97.752-39.472,195.925c-1.732,6.993-3.491,13.917-5.231,20.58
						l-1.137,4.358l3.999-2.084c44.631-23.265,86.068-40.307,101.812-46.555l2.17-0.861l-1.185-2.008
						c-9.851-16.688-13.293-36.398-9.693-55.497c3.619-19.197,14.116-36.386,29.557-48.399c0.535-0.416,1.175-0.637,1.852-0.637
						c0.939,0,1.808,0.423,2.384,1.161c0.494,0.632,0.711,1.42,0.612,2.22c-0.099,0.802-0.503,1.515-1.137,2.008
						c-31.136,24.226-37.856,68.535-15.298,100.875c13.886,19.908,36.7,31.792,61.026,31.79
						c13.787-0.001,27.292-3.845,39.055-11.117c0.48-0.297,1.028-0.453,1.587-0.453c1.054,0,2.014,0.534,2.568,1.428
						c0.425,0.685,0.557,1.493,0.373,2.277c-0.185,0.783-0.664,1.448-1.349,1.872c-12.72,7.864-27.319,12.02-42.217,12.021
						c-0.003,0-0.004,0-0.007,0c-12.077-0.001-24.206-2.772-35.075-8.014c-11.313-5.456-20.943-13.274-28.622-23.236l-0.917-1.19
						l-1.4,0.55c-13.518,5.312-61.509,24.72-111.468,51.419l-0.762,0.407l-0.225,0.832C4.409,547.005-7.332,582.613-18.986,610.355
						c-9.452,22.501-18.979,40.162-28.318,52.492c-9.17,12.109-18.529,19.578-27.818,22.199
						C-77.708,685.777-80.314,686.147-82.867,686.147z M4.632,509.963c-35.933,19.976-64.689,39.582-85.472,58.272
						c-20.982,18.871-33.77,36.765-38.008,53.186c-3.614,14.002-1.234,26.739,7.275,38.939c1.174,1.683,2.487,3.381,3.903,5.047
						c8.403,9.886,16.542,14.691,24.882,14.691c1.997,0,4.024-0.286,6.024-0.851c8.58-2.422,17.51-10.045,26.542-22.658
						c8.453-11.804,17.086-28.136,25.659-48.541c10.695-25.455,21.493-57.689,32.095-95.807l1.28-4.602L4.632,509.963z"/>
				</g>
				<g>
					<g>
						<path style="fill:#29486E;" d="M5.604,511.707c-6.275,3.49-12.323,6.961-18.144,10.419c-0.131-4.134,0.497-9.119,3.234-13.498
							c5.982-3.447,12.178-6.9,18.577-10.363L5.604,511.707z"/>
					</g>
				</g>
			</g>
			<g>
				<ellipse style="fill:#D5ECEF;" cx="61.129" cy="274.392" rx="21.544" ry="21.507"/>
				<g>
					<g>
						<path style="fill:#FFFFFF;" d="M61.129,274.393l9.454-14.249c4.016,2.658,6.89,6.983,7.534,12.129L61.129,274.393z"/>
					</g>
				</g>
				<g>
					<g>
						<path style="fill:#FFFFFF;" d="M44.141,276.512l16.988-2.119l-9.454,14.249C47.659,285.985,44.785,281.66,44.141,276.512z"/>
					</g>
				</g>
			</g>
			<g>
				<g>
					<path style="fill:#3A6383;" d="M274.835,322.938l-3.64-8.931c-0.511-1.254,0.023-2.785,1.275-3.655l7.435-5.168
						c1.253-0.871,2.876-0.84,3.877,0.074l7.128,6.507c1.324,1.209,1.014,3.41-0.643,4.562l-10.923,7.593
						C277.688,325.07,275.512,324.597,274.835,322.938z"/>
				</g>
				<g>
					<path style="fill:#5E9AAE;" d="M276.946,321.47l-4.098-8.613c-0.576-1.21-0.325-2.543,0.599-3.185l5.483-3.811
						c0.924-0.642,2.263-0.414,3.2,0.544l6.67,6.825c1.239,1.268,1.255,3.243,0.034,4.092l-8.055,5.599
						C279.557,323.771,277.707,323.07,276.946,321.47z"/>
				</g>
				<g>
					<path style="fill:#71B7C3;" d="M279.074,319.991l-4.56-8.292c-0.641-1.165-0.675-2.3-0.083-2.711l3.514-2.443
						c0.592-0.412,1.646,0.015,2.518,1.019l6.208,7.146c1.153,1.328,1.499,3.073,0.715,3.618l-5.163,3.589
						C281.441,322.461,279.921,321.532,279.074,319.991z"/>
				</g>
			</g>
			<g>
				<g>
					<path style="fill:#3A6383;" d="M297.988,356.131l7.128,6.506c1.001,0.914,2.624,0.945,3.877,0.074l7.435-5.168
						c1.253-0.871,1.786-2.401,1.275-3.656l-3.64-8.931c-0.676-1.659-2.852-2.133-4.509-0.981l-10.923,7.593
						C296.974,352.72,296.664,354.922,297.988,356.131z"/>
				</g>
				<g>
					<path style="fill:#5E9AAE;" d="M300.099,354.664l6.67,6.825c0.937,0.959,2.277,1.186,3.2,0.544l5.483-3.811
						c0.924-0.642,1.174-1.976,0.599-3.185l-4.098-8.613c-0.761-1.6-2.611-2.3-3.833-1.451l-8.055,5.599
						C298.844,351.421,298.86,353.396,300.099,354.664z"/>
				</g>
				<g>
					<path style="fill:#71B7C3;" d="M302.227,353.184l6.208,7.146c0.872,1.004,1.926,1.43,2.518,1.018l3.514-2.443
						c0.592-0.412,0.557-1.547-0.083-2.711l-4.56-8.292c-0.847-1.54-2.368-2.469-3.151-1.925l-5.163,3.589
						C300.728,350.111,301.073,351.857,302.227,353.184z"/>
				</g>
			</g>
		</g>
		<g style="clip-path:url(#SVGID_00000160173830130741568770000000433445870088045234_);">
			<g>
				<path style="fill:#4C7F98;" d="M523.722,528.01l-71.21,60.286c-2.486,2.105-6.21,1.799-8.318-0.683L321.016,442.62
					c-2.108-2.482-1.802-6.199,0.684-8.304l71.21-60.286c2.486-2.105,6.21-1.799,8.318,0.683l123.178,144.994
					C526.514,522.188,526.208,525.905,523.722,528.01z"/>
				<path style="fill:#AEDAE1;" d="M519.781,527.835l-66.799,56.552c-2.371,2.008-5.924,1.716-7.935-0.651L324.989,442.412
					c-2.011-2.367-1.719-5.914,0.652-7.921l66.799-56.552c2.371-2.008,5.924-1.716,7.935,0.651l120.059,141.323
					C522.445,522.281,522.152,525.827,519.781,527.835z"/>
				<path style="opacity:0.5;fill:#FFFFFF;" d="M400.41,531.192c0,0,45.349-49.641-18.835-144.055c0,0,24.061,82.28-6.883,113.782
					L400.41,531.192z"/>
				<path style="opacity:0.5;fill:#FFFFFF;" d="M470.16,460.734l21.299,91.079l-38.475,32.573c-2.371,2.009-5.927,1.717-7.935-0.65
					l-8.356-9.835V421.339L470.16,460.734z"/>
			</g>
			<g>
				<g>
					<g>
						<path style="fill:#B46839;" d="M366.677,438.795c1.751,5.897-1.618,12.094-7.525,13.843
							c-5.907,1.748-12.115-1.615-13.867-7.512c-1.751-5.897,1.618-12.094,7.525-13.843
							C358.718,429.535,364.926,432.898,366.677,438.795z"/>
						<path style="fill:#D49542;" d="M365.422,439.166c1.546,5.205-1.428,10.675-6.642,12.218
							c-5.214,1.543-10.693-1.425-12.239-6.63c-1.546-5.205,1.428-10.675,6.642-12.218
							C358.397,430.993,363.876,433.961,365.422,439.166z"/>
						<path style="fill:#E5AB47;" d="M364.09,439.56c1.328,4.471-1.226,9.169-5.705,10.495c-4.478,1.325-9.185-1.224-10.513-5.695
							s1.226-9.169,5.705-10.495C358.056,432.54,362.763,435.09,364.09,439.56z"/>
						
							<rect x="345.263" y="441.369" transform="matrix(0.9589 -0.2838 0.2838 0.9589 -110.8136 119.206)" style="fill:#B46839;" width="21.494" height="1.372"/>
						<path style="fill:#D49542;" d="M365.449,439.262c0.064,0.221,0.12,0.443,0.166,0.666l-18.819,5.569
							c-0.083-0.212-0.158-0.428-0.224-0.649L365.449,439.262z"/>
					</g>
					<path style="fill:#71B7C3;" d="M371.658,440.916c2.167,7.298-2.001,14.967-9.312,17.129c-5.971,1.771-12.195-0.686-15.45-5.625
						c3.456,3.199,8.469,4.544,13.314,3.111c7.308-2.165,11.478-9.831,9.312-17.129c-0.397-1.337-0.976-2.565-1.707-3.668
						C369.573,436.355,370.929,438.458,371.658,440.916z"/>
					<path style="opacity:0.5;fill:#FFFFFF;" d="M343.162,442.913c-1.783-6.005,1.647-12.316,7.662-14.095
						c4.914-1.457,10.035,0.565,12.714,4.629c-2.844-2.632-6.969-3.739-10.956-2.56c-6.014,1.781-9.445,8.09-7.662,14.095
						c0.327,1.1,0.803,2.111,1.405,3.019C344.878,446.666,343.762,444.936,343.162,442.913z"/>
				</g>
				<g>
					<g>
						<path style="fill:#B46839;" d="M392.188,419.852c-5.981-1.476-9.631-7.513-8.152-13.484c1.479-5.971,7.526-9.614,13.507-8.138
							c5.981,1.476,9.631,7.513,8.152,13.484C404.216,417.685,398.169,421.328,392.188,419.852z"/>
						<path style="fill:#D49542;" d="M392.502,418.583c-5.279-1.303-8.5-6.631-7.195-11.901c1.305-5.27,6.643-8.486,11.922-7.183
							c5.279,1.303,8.5,6.631,7.195,11.901C403.119,416.67,397.781,419.886,392.502,418.583z"/>
						<path style="fill:#E5AB47;" d="M392.836,417.237c-4.534-1.119-7.301-5.696-6.18-10.223c1.121-4.527,5.706-7.289,10.24-6.17
							c4.534,1.119,7.301,5.696,6.18,10.223C401.955,415.594,397.37,418.356,392.836,417.237z"/>
						
							<rect x="384.039" y="408.33" transform="matrix(-0.2404 0.9707 -0.9707 -0.2404 886.6985 124.1591)" style="fill:#B46839;" width="21.462" height="1.374"/>
						<path style="fill:#D49542;" d="M392.406,418.558c-0.224-0.056-0.444-0.121-0.66-0.194l4.711-19.022
							c0.225,0.036,0.45,0.081,0.674,0.135L392.406,418.558z"/>
					</g>
					<path style="fill:#71B7C3;" d="M410.542,407.997c2.167,7.298-2.001,14.966-9.312,17.129c-5.971,1.771-12.195-0.686-15.45-5.625
						c3.456,3.199,8.469,4.544,13.314,3.111c7.308-2.165,11.478-9.832,9.312-17.129c-0.397-1.337-0.976-2.565-1.707-3.668
						C408.457,403.436,409.813,405.539,410.542,407.997z"/>
					<path style="opacity:0.5;fill:#FFFFFF;" d="M382.046,409.994c-1.783-6.005,1.647-12.316,7.662-14.096
						c4.914-1.457,10.035,0.565,12.714,4.629c-2.844-2.632-6.969-3.739-10.956-2.56c-6.014,1.782-9.445,8.09-7.662,14.096
						c0.327,1.1,0.803,2.111,1.405,3.018C383.762,413.747,382.646,412.017,382.046,409.994z"/>
				</g>
				<g>
					<g>
						<path style="fill:#B46839;" d="M397.504,475.081c1.751,5.897-1.618,12.094-7.525,13.843
							c-5.907,1.748-12.115-1.615-13.867-7.512c-1.751-5.897,1.618-12.094,7.525-13.843
							C389.545,465.821,395.753,469.184,397.504,475.081z"/>
						<ellipse style="fill:#D49542;" cx="386.808" cy="478.247" rx="9.846" ry="9.829"/>
						<ellipse style="fill:#E5AB47;" cx="386.808" cy="478.247" rx="8.458" ry="8.443"/>
						
							<rect x="376.09" y="477.655" transform="matrix(0.9589 -0.2838 0.2838 0.9589 -119.8439 129.4462)" style="fill:#B46839;" width="21.494" height="1.372"/>
						<path style="fill:#D49542;" d="M396.276,475.548c0.064,0.221,0.12,0.444,0.166,0.666l-18.819,5.57
							c-0.083-0.212-0.158-0.428-0.224-0.649L396.276,475.548z"/>
					</g>
					<path style="fill:#71B7C3;" d="M402.485,477.203c2.167,7.298-2.001,14.966-9.312,17.129c-5.972,1.771-12.195-0.686-15.45-5.625
						c3.456,3.199,8.469,4.544,13.314,3.111c7.308-2.165,11.478-9.832,9.312-17.129c-0.397-1.337-0.976-2.565-1.707-3.668
						C400.4,472.642,401.755,474.745,402.485,477.203z"/>
					<path style="opacity:0.5;fill:#FFFFFF;" d="M373.989,479.2c-1.783-6.005,1.647-12.316,7.662-14.095
						c4.914-1.457,10.035,0.565,12.714,4.629c-2.844-2.632-6.969-3.739-10.956-2.56c-6.014,1.781-9.445,8.09-7.662,14.095
						c0.327,1.1,0.803,2.111,1.405,3.019C375.705,482.953,374.589,481.223,373.989,479.2z"/>
				</g>
				<g>
					<g>
						<path style="fill:#B46839;" d="M416.101,439.64c3.146-5.288,9.991-7.029,15.288-3.888c5.297,3.141,7.041,9.974,3.895,15.262
							c-3.146,5.288-9.991,7.029-15.288,3.888C414.698,451.762,412.954,444.928,416.101,439.64z"/>
						<path style="fill:#D49542;" d="M417.227,440.308c2.777-4.667,8.818-6.204,13.494-3.432c4.676,2.772,6.215,8.803,3.438,13.471
							c-2.777,4.667-8.818,6.204-13.494,3.432C415.989,451.006,414.45,444.975,417.227,440.308z"/>
						<path style="fill:#E5AB47;" d="M418.421,441.016c2.385-4.009,7.575-5.329,11.591-2.948c4.016,2.381,5.338,7.561,2.953,11.571
							c-2.385,4.009-7.575,5.329-11.591,2.948C417.357,450.205,416.035,445.025,418.421,441.016z"/>
						<polygon style="fill:#B46839;" points="416.852,439.173 435.335,450.132 434.633,451.311 416.151,440.353 						"/>
						<path style="fill:#D49542;" d="M417.278,440.223c0.119-0.197,0.245-0.389,0.377-0.574l16.876,10.006
							c-0.1,0.204-0.208,0.407-0.325,0.605L417.278,440.223z"/>
					</g>
					<path style="fill:#71B7C3;" d="M441.368,444.284c2.167,7.298-2.001,14.966-9.312,17.129c-5.971,1.771-12.195-0.686-15.45-5.625
						c3.456,3.199,8.469,4.544,13.314,3.111c7.308-2.165,11.478-9.832,9.312-17.129c-0.397-1.337-0.976-2.565-1.707-3.668
						C439.284,439.723,440.639,441.825,441.368,444.284z"/>
					<path style="opacity:0.5;fill:#FFFFFF;" d="M412.873,446.28c-1.783-6.005,1.647-12.316,7.662-14.095
						c4.914-1.457,10.035,0.564,12.714,4.629c-2.844-2.632-6.969-3.739-10.956-2.56c-6.014,1.781-9.445,8.09-7.662,14.095
						c0.327,1.1,0.803,2.111,1.405,3.018C414.589,450.034,413.473,448.303,412.873,446.28z"/>
				</g>
				<g>
					<g>
						<path style="fill:#B46839;" d="M427.811,519.097c-2.525,5.61-9.128,8.115-14.748,5.594c-5.62-2.521-8.129-9.112-5.604-14.723
							c2.525-5.61,9.128-8.115,14.748-5.594C427.827,506.896,430.336,513.487,427.811,519.097z"/>
						<path style="fill:#D49542;" d="M426.616,518.562c-2.229,4.952-8.057,7.162-13.017,4.937c-4.96-2.225-7.175-8.043-4.946-12.994
							s8.057-7.162,13.017-4.937C426.631,507.792,428.845,513.61,426.616,518.562z"/>
						<path style="fill:#E5AB47;" d="M425.35,517.994c-1.915,4.253-6.92,6.152-11.181,4.241c-4.261-1.911-6.163-6.908-4.248-11.162
							c1.914-4.253,6.92-6.152,11.181-4.241C425.362,508.743,427.264,513.74,425.35,517.994z"/>
						<polygon style="fill:#B46839;" points="427.117,519.646 407.509,510.851 408.072,509.6 427.68,518.395 						"/>
						<path style="fill:#D49542;" d="M426.575,518.652c-0.096,0.209-0.199,0.414-0.309,0.613l-17.904-8.031
							c0.076-0.214,0.16-0.427,0.254-0.638L426.575,518.652z"/>
					</g>
					<path style="fill:#71B7C3;" d="M433.311,513.489c2.167,7.298-2.001,14.966-9.312,17.129c-5.972,1.771-12.195-0.686-15.45-5.625
						c3.456,3.199,8.469,4.544,13.314,3.111c7.308-2.165,11.478-9.832,9.312-17.129c-0.397-1.337-0.976-2.565-1.707-3.668
						C431.226,508.928,432.582,511.031,433.311,513.489z"/>
					<path style="opacity:0.5;fill:#FFFFFF;" d="M404.816,515.486c-1.783-6.005,1.647-12.316,7.662-14.095
						c4.914-1.457,10.035,0.565,12.714,4.629c-2.844-2.632-6.969-3.739-10.956-2.56c-6.014,1.782-9.445,8.09-7.662,14.095
						c0.327,1.1,0.803,2.111,1.405,3.019C406.531,519.24,405.416,517.509,404.816,515.486z"/>
				</g>
				<g>
					<g>
						<path style="fill:#B46839;" d="M460.687,471.284c5.715,2.298,8.482,8.786,6.179,14.491c-2.302,5.705-8.801,8.467-14.516,6.169
							c-5.715-2.298-8.482-8.786-6.179-14.491C448.473,471.748,454.973,468.986,460.687,471.284z"/>
						<path style="fill:#D49542;" d="M460.198,472.496c5.044,2.028,7.486,7.755,5.454,12.79c-2.032,5.035-7.768,7.473-12.812,5.445
							c-5.044-2.028-7.486-7.755-5.454-12.79C449.418,472.906,455.154,470.468,460.198,472.496z"/>
						<path style="fill:#E5AB47;" d="M459.679,473.782c4.333,1.742,6.43,6.661,4.685,10.986c-1.745,4.325-6.672,6.419-11.005,4.677
							c-4.333-1.742-6.43-6.661-4.685-10.986S455.347,472.04,459.679,473.782z"/>
						<polygon style="fill:#B46839;" points="461.264,471.954 453.232,491.86 451.957,491.347 459.99,471.442 						"/>
						<path style="fill:#D49542;" d="M460.29,472.535c0.214,0.087,0.422,0.182,0.626,0.284l-7.334,18.176
							c-0.217-0.067-0.434-0.143-0.649-0.228L460.29,472.535z"/>
					</g>
					<path style="fill:#71B7C3;" d="M472.195,480.57c2.167,7.298-2.001,14.967-9.312,17.129c-5.972,1.771-12.195-0.686-15.45-5.625
						c3.456,3.199,8.469,4.544,13.314,3.111c7.308-2.165,11.478-9.831,9.311-17.129c-0.397-1.337-0.976-2.565-1.707-3.668
						C470.11,476.009,471.466,478.112,472.195,480.57z"/>
					<path style="opacity:0.5;fill:#FFFFFF;" d="M443.7,482.567c-1.783-6.005,1.647-12.316,7.662-14.095
						c4.914-1.457,10.035,0.565,12.714,4.629c-2.844-2.632-6.969-3.739-10.956-2.56c-6.014,1.781-9.445,8.09-7.662,14.095
						c0.327,1.1,0.803,2.111,1.405,3.018C445.415,486.32,444.3,484.59,443.7,482.567z"/>
				</g>
				<g>
					<g>
						<path style="fill:#B46839;" d="M454.492,541.45c5.184,3.324,6.686,10.214,3.356,15.389c-3.33,5.175-10.232,6.675-15.416,3.35
							c-5.184-3.324-6.686-10.214-3.356-15.389C442.406,539.626,449.308,538.126,454.492,541.45z"/>
						<path style="fill:#D49542;" d="M453.784,542.55c4.575,2.934,5.901,9.015,2.962,13.583c-2.939,4.567-9.031,5.891-13.606,2.957
							c-4.575-2.934-5.902-9.015-2.962-13.583C443.117,540.94,449.209,539.616,453.784,542.55z"/>
						<path style="fill:#E5AB47;" d="M453.033,543.716c3.93,2.52,5.069,7.744,2.544,11.667c-2.525,3.923-7.757,5.06-11.687,2.54
							s-5.069-7.744-2.545-11.667C443.871,542.333,449.103,541.196,453.033,543.716z"/>
						<polygon style="fill:#B46839;" points="454.933,542.216 443.314,560.271 442.157,559.53 453.776,541.475 						"/>
						<path style="fill:#D49542;" d="M453.867,542.604c0.193,0.125,0.381,0.258,0.561,0.396l-10.609,16.486
							c-0.201-0.106-0.4-0.222-0.594-0.345L453.867,542.604z"/>
					</g>
					<path style="fill:#71B7C3;" d="M464.138,549.776c2.167,7.298-2.001,14.966-9.312,17.129c-5.972,1.771-12.195-0.686-15.45-5.625
						c3.456,3.199,8.469,4.544,13.314,3.111c7.308-2.165,11.478-9.832,9.312-17.129c-0.397-1.337-0.976-2.565-1.707-3.668
						C462.053,545.215,463.409,547.318,464.138,549.776z"/>
					<path style="opacity:0.5;fill:#FFFFFF;" d="M435.643,551.773c-1.783-6.005,1.647-12.316,7.662-14.096
						c4.914-1.457,10.035,0.565,12.714,4.629c-2.844-2.632-6.969-3.739-10.956-2.56c-6.014,1.782-9.445,8.09-7.662,14.095
						c0.327,1.1,0.803,2.111,1.405,3.019C437.358,555.526,436.243,553.796,435.643,551.773z"/>
				</g>
				<g>
					<g>
						<path style="fill:#B46839;" d="M498.041,514.735c1.751,5.897-1.618,12.094-7.525,13.843
							c-5.907,1.748-12.115-1.615-13.867-7.512c-1.751-5.897,1.618-12.094,7.525-13.843
							C490.082,505.475,496.29,508.838,498.041,514.735z"/>
						<path style="fill:#D49542;" d="M496.786,515.107c1.546,5.205-1.428,10.675-6.642,12.218
							c-5.214,1.543-10.693-1.425-12.239-6.63c-1.546-5.205,1.428-10.675,6.642-12.218
							C489.761,506.934,495.24,509.902,496.786,515.107z"/>
						<ellipse style="fill:#E5AB47;" cx="487.346" cy="517.9" rx="8.458" ry="8.443"/>
						
							<rect x="476.627" y="517.309" transform="matrix(0.9589 -0.2838 0.2838 0.9589 -126.9622 159.6051)" style="fill:#B46839;" width="21.494" height="1.372"/>
						<path style="fill:#D49542;" d="M496.813,515.202c0.064,0.221,0.12,0.444,0.166,0.666l-18.819,5.57
							c-0.083-0.212-0.158-0.428-0.224-0.649L496.813,515.202z"/>
					</g>
					<path style="fill:#71B7C3;" d="M503.022,516.857c2.167,7.298-2.001,14.966-9.312,17.129c-5.972,1.771-12.195-0.686-15.45-5.625
						c3.456,3.199,8.469,4.544,13.314,3.111c7.308-2.165,11.478-9.832,9.312-17.129c-0.397-1.337-0.976-2.565-1.707-3.668
						C500.937,512.296,502.293,514.398,503.022,516.857z"/>
					<path style="opacity:0.5;fill:#FFFFFF;" d="M474.526,518.853c-1.783-6.005,1.647-12.316,7.662-14.095
						c4.914-1.457,10.035,0.565,12.714,4.629c-2.844-2.632-6.969-3.739-10.956-2.56c-6.014,1.781-9.445,8.09-7.662,14.095
						c0.327,1.1,0.803,2.111,1.405,3.018C476.242,522.607,475.126,520.876,474.526,518.853z"/>
				</g>
			</g>
			<path style="fill:#8CC9D1;" d="M372.778,421.476l101.681,120.43C474.458,541.906,391.409,427.962,372.778,421.476z"/>
		</g>
		<g style="clip-path:url(#SVGID_00000160173830130741568770000000433445870088045234_);">
			<path style="fill:#1C324A;" d="M236.437,240.419l-58.66-34.704l1.264-2.165l-14.078-11.168l2.123-3.638l-1.568-0.912
				l-2.124,3.637l-2.421-1.408l3.216-5.51l-4.842-2.817l-1.093,1.872l-4.842-2.817l5.345-9.156L-17.524,69.089l-8.287,14.197
				l-2.657-1.546l8.287-14.197l-10.834-6.302l-21.368,36.607l10.834,6.302l8.287-14.197l2.657,1.546l-8.287,14.197L137.389,208.24
				l5.345-9.156l4.842,2.817l-1.093,1.872l4.843,2.817l3.216-5.509l2.421,1.408l-2.123,3.637l1.568,0.912l2.123-3.637l16.674,6.72
				l1.288-2.207l59.166,33.837c0.743,0.425,1.51,0.474,1.722,0.11C237.594,241.497,237.174,240.855,236.437,240.419z"/>
			<g>
				<polygon style="fill:#8CC9D1;" points="-50.04,94.825 -30.226,57.357 150.201,152.443 130.387,189.911 				"/>
				<polygon style="fill:#D5ECEF;" points="-40.42,87.911 -27.93,64.293 144.351,155.086 131.861,178.704 				"/>
				<polygon style="fill:#71B7C3;" points="-50.04,94.825 -47.672,90.346 132.756,185.432 130.387,189.911 				"/>
				<polygon style="fill:#4C7F98;" points="118.184,177.753 133.262,149.242 144.351,155.086 129.273,183.597 				"/>
				<polygon style="fill:#29486E;" points="121.471,179.485 136.548,150.975 141.064,153.354 125.986,181.865 				"/>
				<polygon style="fill:#FFFFFF;" points="-37.692,82.751 -33.246,74.346 127.946,159.295 123.5,167.701 				"/>
				<polygon style="fill:#D5ECEF;" points="-45.075,78.86 -40.629,70.455 -37.91,71.888 -42.355,80.294 				"/>
				<polygon style="fill:#8CC9D1;" points="140.3,183.151 150.202,164.427 145.245,161.815 135.343,180.539 				"/>
				<polygon style="fill:#5E9AAE;" points="144.243,187.679 156.171,165.123 151.215,162.511 139.286,185.067 				"/>
				<polygon style="fill:#5E9AAE;" points="149.339,187.915 159.241,169.191 157.636,168.345 147.734,187.069 				"/>
				<polygon style="fill:#29486E;" points="149.703,183.346 155.667,172.068 153.189,170.762 147.225,182.04 				"/>
				<polygon style="fill:#D5ECEF;" points="140.277,177.202 147.746,169.07 142.79,166.458 137.799,175.896 				"/>
				<polygon style="fill:#71B7C3;" points="145.972,184.409 154.442,168.393 149.485,165.781 141.016,181.797 				"/>
				<polygon style="fill:#71B7C3;" points="150.775,185.2 157.805,171.906 156.2,171.06 149.17,184.354 				"/>
				<polygon style="fill:#71B7C3;" points="-63.848,87.548 -44.034,50.08 -32.945,55.924 -52.759,93.392 				"/>
				<polygon style="fill:#8CC9D1;" points="-61.48,83.069 -46.402,54.558 -35.313,60.402 -50.391,88.913 				"/>
				<polygon style="fill:#D5ECEF;" points="-56.175,80.986 -45.133,60.106 -40.618,62.486 -51.66,83.365 				"/>
				<polygon style="fill:#4C7F98;" points="151.216,180.485 154.154,174.929 151.676,173.623 148.738,179.179 				"/>
				<polygon style="fill:#5E9AAE;" points="168.249,190.209 171.806,183.484 157.272,172.914 151.308,184.192 				"/>
				<polygon style="fill:#71B7C3;" points="169.16,188.487 170.895,185.207 155.759,175.775 152.821,181.331 				"/>
				<path style="fill:#8CC9D1;" d="M231.801,219.402L231.801,219.402c0.197-0.372-0.25-0.996-1.004-1.4l-60.129-32.257l-1.191,2.251
					l60.599,31.368C230.836,219.757,231.604,219.774,231.801,219.402z"/>
				<path style="fill:#D5ECEF;" d="M231.801,219.402L231.801,219.402c0.096-0.181-0.124-0.485-0.491-0.681l-60.944-32.405
					l-0.587,1.109l61.182,31.956C231.33,219.574,231.705,219.583,231.801,219.402z"/>
				<polygon style="fill:#FFFFFF;" points="118.928,149.678 123.74,140.579 125.997,141.768 121.185,150.867 				"/>
				<polygon style="fill:#FFFFFF;" points="110.305,139.316 112.711,134.766 114.968,135.956 112.562,140.505 				"/>
				<polygon style="fill:#FFFFFF;" points="96.87,138.053 101.682,128.954 103.939,130.143 99.127,139.242 				"/>
				<polygon style="fill:#FFFFFF;" points="85.841,132.24 90.653,123.142 92.91,124.331 88.098,133.43 				"/>
				<polygon style="fill:#FFFFFF;" points="77.218,121.879 79.624,117.329 81.88,118.519 79.475,123.068 				"/>
				<polygon style="fill:#FFFFFF;" points="63.783,120.616 68.595,111.517 70.851,112.706 66.039,121.805 				"/>
				<polygon style="fill:#FFFFFF;" points="52.754,114.803 57.565,105.704 59.822,106.894 55.01,115.993 				"/>
				<polygon style="fill:#FFFFFF;" points="44.13,104.441 46.536,99.892 48.793,101.081 46.387,105.631 				"/>
				<polygon style="fill:#FFFFFF;" points="30.695,103.178 35.507,94.079 37.764,95.269 32.952,104.368 				"/>
				<polygon style="fill:#FFFFFF;" points="19.666,97.366 24.478,88.267 26.735,89.456 21.923,98.555 				"/>
				<polygon style="fill:#FFFFFF;" points="11.043,87.004 13.449,82.454 15.706,83.644 13.3,88.193 				"/>
				<polygon style="fill:#FFFFFF;" points="-2.392,85.741 2.42,76.642 4.676,77.831 -0.135,86.93 				"/>
			</g>
		</g>
	</g>
	<g>
		<g>
			<path style="fill:#1C324A;" d="M32.062,202.943l-0.46-0.636c-3.757-5.193-2.593-12.449,2.6-16.206l16.504-11.941
				c5.193-3.757,12.449-2.593,16.206,2.6l0.46,0.636c3.757,5.193,2.593,12.449-2.6,16.206l-16.504,11.941
				C43.074,209.3,35.819,208.136,32.062,202.943z"/>
			<path style="fill:#5E9AAE;" d="M24.274,196.972l-0.46-0.636c-3.757-5.193-2.593-12.449,2.6-16.206l16.504-11.941
				c5.193-3.757,12.449-2.593,16.206,2.6l0.46,0.636c3.757,5.193,2.593,12.449-2.6,16.206L40.48,199.572
				C35.287,203.329,28.031,202.165,24.274,196.972z"/>
			<path style="fill:#71B7C3;" d="M25.574,195.547L25.574,195.547c-3.312-4.578-2.286-10.974,2.292-14.286l15.67-11.338
				c4.578-3.312,10.974-2.286,14.286,2.292l0,0c3.312,4.578,2.286,10.974-2.292,14.286l-15.67,11.338
				C35.283,201.151,28.887,200.125,25.574,195.547z"/>
			<path style="fill:#AEDAE1;" d="M27.526,194.135L27.526,194.135c-2.672-3.693-1.844-8.853,1.849-11.525l14.971-10.832
				c3.693-2.672,8.853-1.844,11.525,1.849l0,0c2.672,3.693,1.844,8.853-1.849,11.525l-14.971,10.832
				C35.358,198.656,30.198,197.828,27.526,194.135z"/>
			
				<rect x="31.468" y="182.448" transform="matrix(0.5862 0.8102 -0.8102 0.5862 166.2322 42.31)" style="fill:#71B7C3;" width="20.462" height="2.865"/>
			
				<rect x="32.048" y="182.745" transform="matrix(0.5862 0.8102 -0.8102 0.5862 166.1322 41.6661)" style="fill:#5E9AAE;" width="20.462" height="1.432"/>
		</g>
		<g>
			<path style="fill:#1C324A;" d="M65.908,440.249l-0.138-0.773c-1.124-6.31,3.081-12.337,9.391-13.461l20.055-3.572
				c6.31-1.124,12.337,3.081,13.461,9.391l0.138,0.773c1.124,6.31-3.08,12.337-9.391,13.461l-20.055,3.572
				C73.058,450.764,67.032,446.56,65.908,440.249z"/>
			<path style="fill:#5E9AAE;" d="M53.754,435.222l-0.138-0.773c-1.124-6.31,3.081-12.337,9.391-13.461l20.055-3.572
				c6.31-1.124,12.337,3.081,13.461,9.391l0.138,0.773c1.124,6.31-3.081,12.337-9.391,13.461l-20.055,3.572
				C60.905,445.736,54.878,441.532,53.754,435.222z"/>
			<path style="fill:#71B7C3;" d="M55.545,434.504L55.545,434.504c-0.991-5.563,2.716-10.876,8.279-11.867l19.042-3.392
				c5.563-0.991,10.876,2.716,11.867,8.279l0,0c0.991,5.563-2.716,10.876-8.279,11.866l-19.042,3.392
				C61.849,443.773,56.536,440.067,55.545,434.504z"/>
			<path style="fill:#AEDAE1;" d="M57.917,434.081L57.917,434.081c-0.799-4.488,2.191-8.774,6.679-9.573l18.192-3.24
				c4.488-0.799,8.774,2.191,9.573,6.679l0,0c0.799,4.488-2.191,8.774-6.679,9.573l-18.192,3.24
				C63.002,441.56,58.716,438.569,57.917,434.081z"/>
			
				<rect x="64.908" y="429.582" transform="matrix(0.1753 0.9845 -0.9845 0.1753 486.3001 281.464)" style="fill:#71B7C3;" width="20.462" height="2.865"/>
			
				<rect x="65.613" y="430.172" transform="matrix(0.1753 0.9845 -0.9845 0.1753 486.758 280.6663)" style="fill:#5E9AAE;" width="20.462" height="1.432"/>
		</g>
		<g>
			<path style="fill:#1C324A;" d="M158.235,281.467l-0.775-0.124c-6.329-1.015-10.636-6.969-9.621-13.298l3.227-20.113
				c1.015-6.329,6.969-10.636,13.298-9.621l0.775,0.124c6.329,1.015,10.636,6.969,9.621,13.298l-3.227,20.113
				C170.518,278.174,164.564,282.482,158.235,281.467z"/>
			<path style="fill:#5E9AAE;" d="M149.354,277.03l-0.775-0.124c-6.329-1.015-10.636-6.969-9.621-13.298l3.227-20.113
				c1.015-6.329,6.969-10.636,13.298-9.621l0.775,0.124c6.329,1.015,10.636,6.969,9.621,13.298l-3.227,20.113
				C161.637,273.737,155.683,278.045,149.354,277.03z"/>
			<path style="fill:#71B7C3;" d="M149.266,275.102L149.266,275.102c-5.579-0.895-9.376-6.143-8.481-11.722l3.064-19.098
				c0.895-5.579,6.143-9.376,11.722-8.481v0c5.579,0.895,9.376,6.143,8.481,11.722l-3.064,19.098
				C160.093,272.2,154.845,275.997,149.266,275.102z"/>
			<path style="fill:#AEDAE1;" d="M149.647,272.724L149.647,272.724c-4.501-0.722-7.564-4.956-6.842-9.457l2.927-18.245
				c0.722-4.501,4.956-7.564,9.457-6.842h0c4.501,0.722,7.564,4.956,6.842,9.457l-2.927,18.245
				C158.382,270.383,154.148,273.446,149.647,272.724z"/>
			
				<rect x="142.187" y="254.019" transform="matrix(0.9874 0.1584 -0.1584 0.9874 42.3865 -20.9174)" style="fill:#71B7C3;" width="20.462" height="2.865"/>
			
				<rect x="142.301" y="254.028" transform="matrix(0.9874 0.1584 -0.1584 0.9874 42.2746 -20.9438)" style="fill:#5E9AAE;" width="20.462" height="1.432"/>
		</g>
		<g>
			<path style="fill:#1C324A;" d="M295.895,465.881l0.232-0.75c1.893-6.124,8.392-9.554,14.516-7.661l19.462,6.016
				c6.124,1.893,9.553,8.392,7.661,14.516l-0.232,0.75c-1.893,6.124-8.392,9.554-14.516,7.661l-19.462-6.016
				C297.431,478.503,294.002,472.004,295.895,465.881z"/>
			<path style="fill:#5E9AAE;" d="M287.909,459.899l0.232-0.75c1.893-6.124,8.392-9.554,14.516-7.661l19.462,6.016
				c6.124,1.893,9.554,8.392,7.661,14.516l-0.232,0.75c-1.893,6.124-8.392,9.553-14.516,7.661l-19.462-6.016
				C289.446,472.522,286.016,466.023,287.909,459.899z"/>
			<path style="fill:#71B7C3;" d="M289.83,460.082L289.83,460.082c1.669-5.398,7.398-8.422,12.796-6.753l18.479,5.712
				c5.398,1.669,8.422,7.398,6.753,12.796l0,0c-1.669,5.398-7.398,8.422-12.796,6.753l-18.479-5.712
				C291.185,471.209,288.161,465.48,289.83,460.082z"/>
			<path style="fill:#AEDAE1;" d="M292.131,460.793L292.131,460.793c1.346-4.355,5.968-6.794,10.323-5.448l17.654,5.457
				c4.355,1.346,6.794,5.968,5.448,10.323l0,0c-1.346,4.355-5.968,6.794-10.323,5.448l-17.654-5.457
				C293.224,469.77,290.785,465.148,292.131,460.793z"/>
			
				<rect x="298.613" y="464.527" transform="matrix(-0.2953 0.9554 -0.9554 -0.2953 845.2299 308.5011)" style="fill:#71B7C3;" width="20.462" height="2.865"/>
			
				<rect x="299.297" y="465.455" transform="matrix(-0.2953 0.9554 -0.9554 -0.2953 846.3182 308.1214)" style="fill:#5E9AAE;" width="20.462" height="1.432"/>
		</g>
	</g>
	<g>
		<g>
			<circle style="fill:#1C324A;" cx="25.105" cy="361.23" r="11.122"/>
			<path style="fill:#B46839;" d="M23.28,363.886c-6.124,0.478-11.475-4.099-11.953-10.222c-0.478-6.124,4.099-11.475,10.222-11.953
				c6.124-0.478,11.475,4.099,11.953,10.222C33.981,358.056,29.404,363.408,23.28,363.886z"/>
			
				<ellipse transform="matrix(0.8625 -0.5061 0.5061 0.8625 -175.4523 59.8519)" style="fill:#D49542;" cx="22.415" cy="352.798" rx="9.816" ry="9.816"/>
			<path style="fill:#E5AB47;" d="M23.071,361.204c-4.642,0.362-8.7-3.107-9.062-7.75c-0.362-4.642,3.107-8.7,7.75-9.062
				c4.642-0.362,8.7,3.107,9.062,7.75C31.183,356.785,27.714,360.842,23.071,361.204z"/>
			
				<rect x="11.601" y="352.121" transform="matrix(0.0778 0.997 -0.997 0.0778 372.3162 303.1023)" style="fill:#B46839;" width="21.431" height="1.37"/>
			<path style="fill:#D49542;" d="M23.08,362.591c-0.229,0.017-0.458,0.024-0.685,0.023l-1.523-19.509
				c0.224-0.036,0.451-0.064,0.68-0.083L23.08,362.591z"/>
		</g>
		<g>
			
				<ellipse transform="matrix(0.1001 -0.995 0.995 0.1001 -15.062 151.9662)" style="fill:#1C324A;" cx="76.484" cy="84.31" rx="11.122" ry="11.122"/>
			
				<ellipse transform="matrix(0.6627 -0.7489 0.7489 0.6627 -31.9333 80.8585)" style="fill:#B46839;" cx="73.794" cy="75.878" rx="11.122" ry="11.122"/>
			<path style="fill:#D49542;" d="M74.558,85.664c-5.405,0.422-10.128-3.618-10.55-9.022c-0.422-5.405,3.618-10.128,9.022-10.55
				c5.405-0.422,10.128,3.618,10.55,9.022C84.002,80.519,79.962,85.243,74.558,85.664z"/>
			<path style="fill:#E5AB47;" d="M74.45,84.284c-4.643,0.362-8.7-3.107-9.062-7.75c-0.362-4.643,3.107-8.7,7.75-9.062
				c4.643-0.362,8.7,3.107,9.062,7.75C82.562,79.865,79.092,83.922,74.45,84.284z"/>
			
				<rect x="62.98" y="75.201" transform="matrix(0.0778 0.997 -0.997 0.0778 143.6159 -3.4918)" style="fill:#B46839;" width="21.431" height="1.37"/>
			<path style="fill:#D49542;" d="M74.459,85.671c-0.229,0.017-0.458,0.024-0.685,0.023l-1.523-19.509
				c0.224-0.036,0.451-0.064,0.68-0.084L74.459,85.671z"/>
		</g>
		<g>
			<circle style="fill:#1C324A;" cx="213.702" cy="268.558" r="11.122"/>
			
				<ellipse transform="matrix(0.1316 -0.9913 0.9913 0.1316 -74.6261 435.0603)" style="fill:#B46839;" cx="211.012" cy="260.126" rx="11.122" ry="11.122"/>
			
				<ellipse transform="matrix(0.9997 -0.0256 0.0256 0.9997 -6.5975 5.4935)" style="fill:#D49542;" cx="211.012" cy="260.126" rx="9.816" ry="9.816"/>
			<path style="fill:#E5AB47;" d="M211.668,268.532c-4.643,0.362-8.7-3.107-9.062-7.75c-0.362-4.643,3.107-8.7,7.75-9.062
				c4.642-0.362,8.7,3.107,9.062,7.75C219.781,264.112,216.311,268.169,211.668,268.532z"/>
			
				<rect x="200.199" y="259.448" transform="matrix(-0.7761 0.6306 -0.6306 -0.7761 538.6454 329.0241)" style="fill:#B46839;" width="21.431" height="1.37"/>
			<path style="fill:#D49542;" d="M211.677,269.918c-0.229,0.017-0.458,0.024-0.685,0.023l-1.523-19.509
				c0.224-0.036,0.451-0.064,0.68-0.084L211.677,269.918z"/>
		</g>
		<g>
			
				<ellipse transform="matrix(0.9914 -0.1306 0.1306 0.9914 -57.3604 30.1972)" style="fill:#1C324A;" cx="201.536" cy="452.401" rx="11.122" ry="11.122"/>
			<path style="fill:#B46839;" d="M190.261,453.208c-4.745-3.901-5.429-10.909-1.528-15.654c3.901-4.745,10.909-5.429,15.654-1.529
				c4.745,3.901,5.429,10.909,1.529,15.654C202.014,456.424,195.006,457.109,190.261,453.208z"/>
			<path style="fill:#D49542;" d="M191.09,452.2c-4.188-3.443-4.792-9.629-1.349-13.816c3.443-4.188,9.628-4.792,13.816-1.349
				c4.188,3.443,4.792,9.629,1.349,13.816C201.464,455.039,195.278,455.642,191.09,452.2z"/>
			<path style="fill:#E5AB47;" d="M191.97,451.13c-3.597-2.957-4.116-8.271-1.159-11.868c2.957-3.597,8.271-4.116,11.868-1.159
				c3.597,2.957,4.116,8.271,1.159,11.868C200.88,453.569,195.567,454.087,191.97,451.13z"/>
			
				<rect x="186.533" y="443.869" transform="matrix(-0.9965 -0.0835 0.0835 -0.9965 356.6644 904.0343)" style="fill:#B46839;" width="21.431" height="1.37"/>
			<path style="fill:#D49542;" d="M191.015,452.136c-0.177-0.147-0.347-0.3-0.51-0.458l12.427-15.116
				c0.187,0.129,0.37,0.267,0.548,0.411L191.015,452.136z"/>
		</g>
	</g>
</g>
</svg>
