<svg id="Layer_1" data-name="Layer 1" xmlns="http://www.w3.org/2000/svg" viewBox="0 0 48 48">
  <defs>
    <style>
      .cls-1 {
        fill: #cfe0f3;
      }

      .cls-1, .cls-2, .cls-3 {
        stroke-width: 0px;
      }

      .cls-2 {
        fill: #fff;
      }

      .cls-3 {
        fill: #eff3f9;
      }
    </style>
  </defs>
  <path class="cls-3" d="m31.999,45c-2.68,0-3.541-3.656-4.453-7.527-.757-3.216-1.699-7.218-3.547-7.218s-2.789,4.002-3.547,7.218c-.912,3.871-1.772,7.527-4.453,7.527-3.786,0-7.889-8.273-8.282-16.702-.174-3.747-.865-7.292-2.053-10.537-.637-1.74-.817-3.57-.539-5.44.712-4.771,4.548-8.56,9.33-9.215.513-.07,1.033-.106,1.544-.106,1.412,0,2.787.265,4.087.789,1.239.499,2.555.751,3.912.751s2.673-.252,3.912-.751c1.3-.523,2.675-.789,4.087-.789.511,0,1.031.036,1.544.106,4.782.655,8.618,4.444,9.33,9.215.279,1.87.098,3.7-.539,5.44-1.188,3.246-1.879,6.791-2.053,10.537-.394,8.429-4.496,16.702-8.282,16.702Z" id="id_116" style="fill: rgb(91, 33, 255);"></path>
  <path class="cls-1" d="m17.001,38c-.667,3.335-.895,5.771-2.155,6.733.386.161.772.267,1.155.267,2.68,0,3.541-3.656,4.453-7.527.757-3.216,1.699-7.218,3.547-7.218-4,0-6,2.745-6.999,7.745Z" id="id_117" style="fill: rgb(98, 36, 255);"></path>
  <path class="cls-1" d="m42.873,12.321c-.712-4.771-4.548-8.56-9.33-9.215-.513-.07-1.033-.106-1.544-.106-.431,0-.858.033-1.281.083,3.631,1.338,6.463,4.46,7.307,8.358.421,1.945.356,3.88-.193,5.751-1.026,3.49-1.509,7.261-1.435,11.208.125,6.777-2.027,13.593-4.82,16.563.136.021.276.037.423.037,3.786,0,7.889-8.273,8.282-16.702.174-3.747.865-7.292,2.053-10.537.637-1.74.817-3.57.539-5.44Z" id="id_118" style="fill: rgb(97, 36, 252);"></path>
  <path class="cls-2" d="m9.107,13.785c-.058,0-.116-.005-.175-.015-.544-.096-.907-.615-.811-1.159.287-1.625,1.055-3.101,2.222-4.268s2.643-1.935,4.268-2.222c.547-.095,1.063.268,1.159.811.096.544-.267,1.062-.811,1.159-1.219.215-2.326.791-3.201,1.666s-1.451,1.982-1.666,3.201c-.085.485-.507.826-.984.826Z" id="id_119"></path>
</svg>