<svg version="1.1" id="Livello_1" xmlns="http://www.w3.org/2000/svg" xmlns:xlink="http://www.w3.org/1999/xlink" x="0px" y="0px" width="100px" height="100px" viewBox="0 0 100 100" enable-background="new 0 0 100 100" xml:space="preserve">
<rect fill="none" width="100" height="100" id="id_101"></rect>
<g>
	<path d="M82.39,57.385c0.002,0.005,0.006,0.009,0.008,0.014l-0.023-0.074c-0.037-0.122-0.08-0.241-0.12-0.362l-8.651-26.241
		c0,0-6.166-8.833-16.167,0l-0.295,4.5H42.859l-0.295-4.5c-10-8.833-16.167,0-16.167,0l-8.651,26.241
		c-0.041,0.121-0.083,0.24-0.12,0.362l-0.024,0.074c0.003-0.005,0.006-0.009,0.009-0.014c-0.326,1.106-0.508,2.274-0.508,3.486
		c0,6.812,5.522,12.334,12.333,12.334c6.122,0,11.188-4.466,12.154-10.314l5.974,2.83h2.039h0.795h2.038l5.975-2.83
		c0.966,5.849,6.032,10.314,12.153,10.314c6.812,0,12.334-5.522,12.334-12.334C82.897,59.659,82.715,58.491,82.39,57.385z
		 M29.436,70.205c-5.154,0-9.333-4.179-9.333-9.334c0-5.154,4.179-9.333,9.333-9.333c5.155,0,9.333,4.179,9.333,9.333
		C38.77,66.026,34.591,70.205,29.436,70.205z M56.27,48.538h-5.872h-0.795h-5.872l-0.425-6.484h13.387L56.27,48.538z M70.563,70.205
		c-5.154,0-9.333-4.179-9.333-9.334c0-5.154,4.179-9.333,9.333-9.333s9.334,4.179,9.334,9.333
		C79.897,66.026,75.718,70.205,70.563,70.205z" id="id_102" style="fill: rgb(91, 33, 255);"></path>
	<path d="M29.888,67.806c-2.675-0.17-4.632-1.075-5.819-2.689c-2.138-2.911-1.113-7.231-1.103-7.275
		c0.066-0.268-0.098-0.538-0.366-0.604c-0.267-0.065-0.539,0.098-0.604,0.365c-0.048,0.195-1.15,4.81,1.264,8.102
		c1.369,1.867,3.578,2.911,6.565,3.101c0.011,0.001,0.021,0.001,0.032,0.001c0.262,0,0.481-0.203,0.499-0.469
		C30.373,68.061,30.163,67.823,29.888,67.806z" id="id_103" style="fill: rgb(98, 36, 255);"></path>
	<path d="M71.246,67.806c-2.675-0.17-4.632-1.075-5.819-2.689c-2.138-2.911-1.112-7.231-1.102-7.275
		c0.065-0.268-0.099-0.538-0.367-0.604c-0.266-0.065-0.538,0.098-0.604,0.365c-0.049,0.195-1.15,4.81,1.264,8.102
		c1.369,1.867,3.578,2.911,6.564,3.101c0.011,0.001,0.021,0.001,0.032,0.001c0.262,0,0.481-0.203,0.499-0.469
		C71.731,68.061,71.521,67.823,71.246,67.806z" id="id_104" style="fill: rgb(94, 31, 255);"></path>
</g>
</svg>