<svg version="1.1" id="Layer_1" xmlns="http://www.w3.org/2000/svg" xmlns:xlink="http://www.w3.org/1999/xlink" x="0px" y="0px" width="520px" height="520px" viewBox="0 0 520 520" enable-background="new 0 0 520 520" xml:space="preserve">
<g id="_x31_538_x2C__Coding_x2C__confirmation_x2C__delivery_x2C__design_x2C__development">
	<g>
		<path d="M185,115h-50v330h249.777V115H335v35c0,2.761-2.238,5-5,5H190c-2.761,0-5-2.239-5-5V115z M210,410h-20v-20h20V410z
			 M250,410h-20v-20h20V410z M290,410h-20v-20h20V410z M330,410h-20v-20h20V410z M330,365H190c-2.761,0-5-2.238-5-5s2.239-5,5-5h140
			c2.762,0,5,2.238,5,5S332.762,365,330,365z M185,320c0-2.762,2.239-5,5-5h120c2.762,0,5,2.238,5,5s-2.238,5-5,5H190
			C187.239,325,185,322.762,185,320z M330,285H190c-2.761,0-5-2.238-5-5s2.239-5,5-5h140c2.762,0,5,2.238,5,5S332.762,285,330,285z
			 M185,240c0-2.761,2.239-5,5-5h90c2.762,0,5,2.239,5,5s-2.238,5-5,5h-90C187.239,245,185,242.761,185,240z M190,195h140
			c2.762,0,5,2.239,5,5s-2.238,5-5,5H190c-2.761,0-5-2.239-5-5S187.239,195,190,195z" id="id_105" style="fill: rgb(255, 255, 255);"></path>
		<path d="M325,35H195v110h130V35z M300,120c0,2.761-2.238,5-5,5h-70c-2.761,0-5-2.239-5-5V60c0-2.761,2.239-5,5-5h70
			c2.762,0,5,2.239,5,5V120z" id="id_106" style="fill: rgb(255, 255, 255);"></path>
		<rect x="230" y="65" width="60" height="50" id="id_107" style="fill: rgb(255, 255, 255);"></rect>
		<path d="M335,75v30h54.777c2.762,0,5,2.239,5,5v340c0,2.762-2.238,5-5,5H130c-2.761,0-5-2.238-5-5V110c0-2.761,2.239-5,5-5h55V75
			H95v410h330V75H335z" id="id_108" style="fill: rgb(255, 255, 255);"></path>
	</g>
</g>
<g id="Layer_1_1_">
</g>
</svg>