<svg version="1.1" xmlns="http://www.w3.org/2000/svg" xmlns:xlink="http://www.w3.org/1999/xlink" x="0px" y="0px" viewBox="0 0 32 32" style="enable-background:new 0 0 32 32;" xml:space="preserve">
<style type="text/css">
	.st0{display:none;}
	.st1{display:inline;}
</style>
<g id="Grid" class="st0">
</g>
<g id="Calendar_1_">
</g>
<g id="Valentine_Day">
</g>
<g id="Summer">
</g>
<g id="Booking_1_">
</g>
<g id="Favorite">
</g>
<g id="Mark_the_Date">
</g>
<g id="Search">
</g>
<g id="Bell">
</g>
<g id="Silent">
</g>
<g id="Cancel">
</g>
<g id="Stopwatch">
</g>
<g id="Salary_Date">
</g>
<g id="Clock">
</g>
<g id="Graduation_Date">
</g>
<g id="Setting">
</g>
<g id="Schedule">
</g>
<g id="Internationl_Calendar">
</g>
<g id="Add_Event">
</g>
<g id="Remove_Event">
</g>
<g id="Alarm">
</g>
<g id="Add_Alarm">
</g>
<g id="Set_Alarm">
</g>
<g id="Alarm_Off">
</g>
<g id="Appointment">
	<path d="M23.728,16.395c-3.712,0-6.722,3.009-6.722,6.722c0,3.712,3.009,6.722,6.722,6.722s6.722-3.009,6.722-6.722
		C30.45,19.405,27.44,16.395,23.728,16.395z M26.578,22.674l-3.281,2.644c-0.16,0.129-0.36,0.199-0.564,0.199
		c-0.034,0-0.068-0.002-0.103-0.006c-0.238-0.027-0.457-0.149-0.605-0.339l-1.29-1.645c-0.307-0.392-0.238-0.957,0.152-1.264
		c0.392-0.308,0.957-0.239,1.264,0.152l0.728,0.928l2.571-2.072c0.387-0.311,0.955-0.249,1.266,0.137
		C27.026,21.795,26.966,22.361,26.578,22.674z" id="id_101" style="fill: rgb(255, 255, 255);"></path>
	<path d="M24.53,3.121h-2.19v-0.06c0-0.49-0.41-0.9-0.9-0.9c-0.5,0-0.91,0.41-0.91,0.9v0.06h-4.52v-0.06c0-0.49-0.41-0.9-0.9-0.9
		c-0.5,0-0.9,0.41-0.9,0.9v0.06H9.68v-0.06c0-0.49-0.4-0.9-0.9-0.9s-0.9,0.41-0.9,0.9v0.06H5.69c-2.28,0-4.14,1.86-4.14,4.14v15.2
		c0,2.28,1.86,4.14,4.14,4.14h10.602c-0.499-1.06-0.786-2.238-0.786-3.484c0-4.533,3.688-8.222,8.222-8.222
		c1.851,0,3.556,0.623,4.932,1.659V7.261C28.66,4.981,26.81,3.121,24.53,3.121z M8.946,19.147H7.981c-0.497,0-0.9-0.403-0.9-0.9
		s0.403-0.9,0.9-0.9h0.965c0.497,0,0.9,0.403,0.9,0.9S9.443,19.147,8.946,19.147z M8.946,13.334H7.981c-0.497,0-0.9-0.403-0.9-0.9
		s0.403-0.9,0.9-0.9h0.965c0.497,0,0.9,0.403,0.9,0.9S9.443,13.334,8.946,13.334z M15.589,19.147h-0.965c-0.497,0-0.9-0.403-0.9-0.9
		s0.403-0.9,0.9-0.9h0.965c0.497,0,0.9,0.403,0.9,0.9S16.086,19.147,15.589,19.147z M15.589,13.334h-0.965
		c-0.497,0-0.9-0.403-0.9-0.9s0.403-0.9,0.9-0.9h0.965c0.497,0,0.9,0.403,0.9,0.9S16.086,13.334,15.589,13.334z M22.231,13.334
		h-0.964c-0.497,0-0.9-0.403-0.9-0.9s0.403-0.9,0.9-0.9h0.964c0.497,0,0.9,0.403,0.9,0.9S22.728,13.334,22.231,13.334z" id="id_102" style="fill: rgb(255, 255, 255);"></path>
</g>
<g id="Deadline">
</g>
</svg>