<svg xmlns="http://www.w3.org/2000/svg" xml:space="preserve" width="512px" height="512px" version="1.1" style="shape-rendering:geometricPrecision; text-rendering:geometricPrecision; image-rendering:optimizeQuality; fill-rule:evenodd; clip-rule:evenodd" viewBox="0 0 512 512" xmlns:xlink="http://www.w3.org/1999/xlink">
 <defs>
  <style type="text/css">
   
    .fil0 {fill:black}
   
  </style>
 </defs>
 <g id="Layer_x0020_1">
  <metadata id="CorelCorpID_0Corel-Layer"></metadata>
  <path class="fil0" d="M336 512l-166 0c-3,0 -5,-2 -5,-5 0,-13 1,-27 2,-42 4,-57 8,-121 -37,-150 -48,-32 -77,-86 -77,-144 0,-94 76,-171 171,-171 94,0 170,76 171,170l54 72c2,2 14,18 9,32 -2,8 -10,13 -21,16 -1,0 -1,0 -1,0l-31 4 0 98c0,2 -2,5 -5,5l-42 0c-9,0 -17,7 -17,16l0 94c0,3 -2,5 -5,5zm-135 -46c0,0 0,0 0,0 -3,0 -5,-2 -5,-5l1 -7c4,-56 8,-121 -37,-150 -2,-2 -3,-5 -1,-7 1,-3 4,-3 6,-2 50,33 46,103 42,160l-1 7c0,2 -2,4 -5,4zm109 -220l-89 0 -85 0c-31,0 -56,-25 -56,-55 0,-22 13,-42 33,-51 -1,-2 -1,-4 -1,-6 0,-6 1,-12 3,-17 1,0 1,-1 1,-1 7,-16 23,-28 41,-28 8,0 14,2 21,5 5,-19 23,-32 43,-32l0 0 0 0c21,0 38,14 44,33 7,-5 15,-8 24,-8 18,0 34,11 41,26 0,1 0,1 0,1 3,6 4,12 4,19 0,2 0,5 -1,8 20,9 33,29 33,51 0,30 -25,55 -56,55zm-94 -10l0 -165c-16,2 -28,15 -30,31 0,1 -1,3 -3,4 -1,0 -3,0 -5,-1 -6,-4 -13,-7 -21,-7 -14,0 -26,9 -31,21 1,5 7,19 22,17 2,0 5,1 5,4 1,3 -1,5 -4,6 -1,0 -3,0 -4,0 -10,0 -18,-5 -23,-12 0,3 1,5 1,8 1,2 0,5 -3,6 -18,6 -30,24 -30,43 0,25 21,45 46,45l80 0zm10 -165l0 165 84 0c25,0 46,-20 46,-45 0,-19 -12,-37 -30,-43 -3,-1 -4,-4 -3,-6 1,-4 1,-7 1,-10 0,-1 0,-2 0,-2 -5,7 -12,13 -23,13 -1,0 -3,0 -4,-1 -3,0 -5,-3 -5,-5 1,-3 3,-5 6,-5 15,2 21,-12 22,-17 -6,-11 -17,-19 -31,-19 -9,0 -18,4 -24,10 -2,2 -4,2 -6,2 -2,-1 -3,-3 -3,-5 -1,-16 -14,-30 -30,-32zm97 131c-7,0 -11,-3 -14,-5 -9,-9 -9,-24 -8,-26 0,-3 2,-5 5,-5 3,0 5,3 5,5 -1,4 0,14 5,18 2,2 5,3 9,2 3,0 6,2 6,5 0,2 -1,5 -4,5 -2,0 -3,1 -4,1zm-70 -30c-2,0 -4,-1 -5,-3 0,-3 1,-6 4,-7 4,-1 7,-3 8,-7 4,-7 0,-18 0,-19 -1,-2 1,-5 3,-6 3,-1 6,0 7,3 0,1 5,15 -1,27 -3,6 -8,10 -14,12 -1,0 -1,0 -2,0zm-130 33c-1,0 -2,0 -4,-1 -3,0 -4,-3 -4,-5 0,-3 3,-5 6,-5 4,1 7,0 9,-2 5,-4 6,-14 5,-17 0,-3 2,-5 5,-6 3,0 5,2 5,5 1,2 1,17 -8,26 -2,2 -7,5 -14,5zm70 -34c-1,0 -1,0 -2,0 -6,-2 -11,-6 -14,-12 -6,-12 -1,-26 -1,-27 1,-2 4,-4 7,-3 2,1 4,4 3,7 0,0 -4,11 0,19 1,3 4,5 8,7 3,0 5,3 4,6 -1,2 -3,3 -5,3z" id="id_101" style="fill: rgb(94, 31, 255);"></path>
 </g>
</svg>